<svg data-v-423bf9ae="" xmlns="http://www.w3.org/2000/svg" viewBox="0 0 510.78256098407724 60" class="font"><!----><!----><!----><g data-v-423bf9ae="" id="e50e9a2b-413b-41f1-bd6e-b2ace5c3398a" fill="white" transform="matrix(4.7430830001831055,0,0,4.7430830001831055,-3.7944886684417725,-17.217390060424805)"><path d="M6.43 9.91C6.29 9.65 6.09 9.39 5.85 9.21C5.61 9.03 5.36 8.88 5.07 8.75C4.77 8.62 4.45 8.51 4.14 8.41C3.84 8.32 3.53 8.20 3.23 8.11C2.94 7.99 2.67 7.87 2.44 7.71C2.20 7.56 2.02 7.38 1.88 7.15C1.74 6.93 1.65 6.65 1.65 6.31C1.65 6.06 1.71 5.82 1.81 5.59C1.90 5.35 2.04 5.15 2.23 4.97C2.41 4.79 2.63 4.65 2.91 4.55C3.19 4.45 3.50 4.40 3.86 4.40C4.54 4.40 5.15 4.51 5.71 4.75C5.75 5.54 5.78 5.99 5.78 6.06C5.80 6.29 5.88 6.41 6.08 6.41L6.41 6.41L6.41 4.38C5.53 4.00 4.69 3.81 3.86 3.81C3.40 3.81 3.00 3.88 2.63 4.02C2.27 4.16 1.97 4.34 1.74 4.58C1.50 4.82 1.30 5.08 1.18 5.39C1.05 5.70 0.99 6.02 0.99 6.36C0.99 6.78 1.06 7.14 1.20 7.42C1.34 7.70 1.54 7.92 1.78 8.12C2.02 8.32 2.27 8.46 2.56 8.58C2.86 8.71 3.18 8.82 3.49 8.92C3.79 9.02 4.09 9.11 4.40 9.21C4.69 9.31 4.96 9.45 5.19 9.60C5.43 9.76 5.61 9.94 5.75 10.16C5.89 10.39 5.96 10.68 5.96 11.03C5.96 11.35 5.91 11.66 5.80 11.94C5.68 12.22 5.53 12.46 5.32 12.67C5.11 12.88 4.84 13.05 4.54 13.16C4.23 13.29 3.88 13.33 3.49 13.33C2.70 13.33 2.04 13.20 1.51 12.95C1.50 12.75 1.50 12.54 1.48 12.32C1.47 12.10 1.47 11.91 1.46 11.76C1.44 11.61 1.44 11.52 1.44 11.51C1.43 11.28 1.33 11.17 1.13 11.17L0.80 11.17L0.80 13.02L0.80 13.20L0.80 13.38C1.65 13.75 2.53 13.93 3.46 13.93C3.96 13.93 4.41 13.85 4.80 13.69C5.19 13.54 5.53 13.31 5.80 13.05C6.06 12.78 6.29 12.46 6.43 12.10C6.57 11.73 6.64 11.34 6.64 10.92C6.64 10.51 6.57 10.18 6.43 9.91ZM14.27 13.29L14.20 13.29L14.13 13.29L13.97 13.29C13.90 13.29 13.82 13.27 13.73 13.27L11.00 10.30C10.95 10.25 10.91 10.19 10.85 10.14C10.79 10.08 10.72 10.05 10.65 10.01C10.71 9.98 10.75 9.94 10.79 9.90C10.84 9.86 10.89 9.81 10.93 9.77L13.43 7.41C13.51 7.41 13.58 7.39 13.65 7.39C13.72 7.39 13.78 7.38 13.83 7.38L13.93 7.38C14.11 7.36 14.20 7.28 14.20 7.13L14.20 6.85L13.47 6.85L13.19 6.85L12.04 6.85L12.04 7.13C12.04 7.28 12.14 7.36 12.32 7.38C12.33 7.38 12.45 7.38 12.67 7.39L10.26 9.69C10.19 9.76 10.12 9.80 10.07 9.81C10.01 9.83 9.95 9.84 9.88 9.84L9.56 9.84L9.56 3.64L8.89 3.64L7.88 3.64L7.88 3.91C7.88 4.06 7.98 4.14 8.16 4.16L8.23 4.16C8.26 4.16 8.30 4.17 8.34 4.17L8.55 4.17C8.65 4.17 8.76 4.19 8.89 4.19L8.89 13.26C8.74 13.26 8.60 13.29 8.48 13.29L8.25 13.29L8.16 13.29C7.98 13.30 7.88 13.38 7.88 13.54L7.88 13.82L8.89 13.82L9.56 13.82L10.57 13.82L10.57 13.54C10.57 13.38 10.47 13.30 10.29 13.29L10.22 13.29L10.11 13.29C10.07 13.29 10.00 13.27 9.90 13.27C9.80 13.27 9.69 13.26 9.56 13.26L9.56 10.30L9.87 10.30C10.01 10.30 10.11 10.32 10.18 10.35C10.25 10.37 10.32 10.44 10.40 10.53L13.33 13.65C13.38 13.71 13.43 13.75 13.48 13.78C13.54 13.80 13.58 13.82 13.65 13.82L13.69 13.82L14.24 13.82L14.55 13.82L14.55 13.54C14.55 13.38 14.45 13.30 14.27 13.29ZM22.30 6.86L21.78 6.86L20.38 6.86L20.38 7.13C20.38 7.28 20.48 7.36 20.66 7.38L20.73 7.38C20.76 7.38 20.79 7.39 20.83 7.39L21.04 7.39C21.14 7.39 21.25 7.41 21.38 7.41L19.24 12.45L19.15 12.66C19.12 12.73 19.11 12.80 19.08 12.87C19.07 12.80 19.03 12.73 19.01 12.66C18.98 12.59 18.97 12.52 18.94 12.45L16.77 7.41C16.93 7.41 17.07 7.39 17.18 7.39C17.29 7.39 17.37 7.38 17.40 7.38L17.49 7.38C17.67 7.36 17.77 7.28 17.77 7.13L17.77 6.86L16.35 6.86L16.35 6.86L15.79 6.86L15.33 6.86L15.33 7.13C15.33 7.28 15.43 7.36 15.61 7.38C15.61 7.38 15.75 7.38 16.03 7.39L18.75 13.57L17.51 16.28L17.99 16.28C18.07 16.28 18.14 16.25 18.19 16.21C18.23 16.17 18.27 16.13 18.30 16.06L22.06 7.39L22.32 7.39C22.40 7.39 22.44 7.38 22.47 7.38L22.54 7.38C22.72 7.36 22.82 7.28 22.82 7.13L22.82 6.86ZM31.61 12.21C31.58 12.18 31.54 12.15 31.50 12.15C31.47 12.15 31.46 12.15 31.43 12.17C31.42 12.18 31.39 12.21 31.36 12.22C31.16 12.40 30.95 12.56 30.76 12.70C30.56 12.84 30.35 12.94 30.11 13.03C29.88 13.13 29.62 13.20 29.34 13.24C29.06 13.29 28.76 13.31 28.41 13.31C27.85 13.31 27.30 13.22 26.82 13.01C26.33 12.81 25.93 12.52 25.58 12.14C25.23 11.76 24.93 11.28 24.74 10.74C24.54 10.19 24.44 9.56 24.44 8.86C24.44 8.18 24.54 7.56 24.74 7.01C24.95 6.47 25.23 6.01 25.59 5.61C25.96 5.24 26.39 4.94 26.89 4.73C27.40 4.52 27.94 4.42 28.55 4.42C29.44 4.42 30.27 4.56 31.00 4.89C31.04 5.78 31.08 6.30 31.08 6.41C31.09 6.64 31.18 6.75 31.37 6.75L31.71 6.75L31.71 4.51C30.53 4.03 29.47 3.81 28.55 3.81C27.83 3.81 27.19 3.92 26.59 4.17C26.00 4.42 25.47 4.76 25.05 5.21C24.61 5.66 24.29 6.19 24.05 6.80C23.81 7.42 23.70 8.11 23.70 8.86C23.70 9.63 23.83 10.32 24.05 10.95C24.28 11.58 24.60 12.10 25.00 12.54C25.41 12.99 25.90 13.33 26.47 13.57C27.05 13.80 27.66 13.93 28.35 13.93C28.76 13.93 29.13 13.90 29.48 13.83C29.82 13.76 30.14 13.66 30.44 13.54C30.72 13.41 30.98 13.26 31.22 13.09C31.46 12.91 31.68 12.73 31.89 12.50ZM37.42 6.80C37.24 6.76 37.06 6.73 36.85 6.73C36.30 6.73 35.84 6.89 35.46 7.21C35.08 7.53 34.79 7.98 34.57 8.54L34.51 7.07C34.51 6.99 34.48 6.93 34.45 6.90C34.43 6.87 34.37 6.86 34.29 6.86L33.94 6.86L33.94 6.86L32.93 6.86L32.93 7.13C32.93 7.31 33.03 7.36 33.19 7.38C33.28 7.38 33.36 7.38 33.94 7.41L33.94 13.26C33.36 13.29 33.28 13.29 33.19 13.29C33.03 13.30 32.93 13.36 32.93 13.54L32.93 13.82L33.94 13.82L34.59 13.82L34.59 13.82L35.60 13.82L35.60 13.54C35.60 13.36 35.50 13.30 35.34 13.29C35.25 13.29 35.17 13.29 34.59 13.26L34.59 9.30C34.80 8.68 35.08 8.20 35.42 7.88C35.76 7.56 36.19 7.39 36.72 7.39C36.86 7.39 36.99 7.41 37.10 7.42C37.21 7.43 37.32 7.45 37.39 7.48C37.48 7.50 37.52 7.53 37.58 7.55C37.63 7.56 37.67 7.57 37.70 7.57C37.79 7.57 37.83 7.53 37.84 7.46L37.93 7.00C37.77 6.92 37.60 6.85 37.42 6.80ZM45.51 6.86L45.00 6.86L43.60 6.86L43.60 7.13C43.60 7.28 43.69 7.36 43.88 7.38L43.95 7.38C43.97 7.38 44.00 7.39 44.04 7.39L44.25 7.39C44.35 7.39 44.46 7.41 44.59 7.41L42.45 12.45L42.36 12.66C42.34 12.73 42.32 12.80 42.29 12.87C42.28 12.80 42.24 12.73 42.22 12.66C42.20 12.59 42.18 12.52 42.15 12.45L39.98 7.41C40.14 7.41 40.28 7.39 40.39 7.39C40.50 7.39 40.59 7.38 40.61 7.38L40.70 7.38C40.88 7.36 40.98 7.28 40.98 7.13L40.98 6.86L39.56 6.86L39.56 6.86L39.00 6.86L38.54 6.86L38.54 7.13C38.54 7.28 38.64 7.36 38.82 7.38C38.82 7.38 38.96 7.38 39.24 7.39L41.96 13.57L40.73 16.28L41.20 16.28C41.29 16.28 41.36 16.25 41.40 16.21C41.44 16.17 41.48 16.13 41.51 16.06L45.28 7.39L45.53 7.39C45.61 7.39 45.65 7.38 45.68 7.38L45.75 7.38C45.93 7.36 46.03 7.28 46.03 7.13L46.03 6.86ZM52.81 7.63C52.33 7.04 51.66 6.73 50.81 6.73C50.29 6.73 49.84 6.86 49.42 7.11C49.01 7.36 48.65 7.69 48.34 8.11L48.27 7.03C48.27 6.96 48.26 6.92 48.22 6.89C48.17 6.86 48.12 6.86 48.06 6.86L47.70 6.86L46.69 6.86L46.69 7.13C46.69 7.28 46.79 7.36 46.97 7.38L47.04 7.38C47.07 7.38 47.11 7.39 47.15 7.39L47.36 7.39C47.46 7.39 47.57 7.41 47.70 7.41L47.70 15.72C47.54 15.72 47.40 15.75 47.29 15.75L47.05 15.75L46.97 15.75C46.79 15.76 46.69 15.85 46.69 16.00L46.69 16.28L47.70 16.28L48.37 16.28L49.38 16.28L49.38 16.00C49.38 15.85 49.28 15.76 49.10 15.75L49.03 15.75L48.92 15.75C48.87 15.75 48.80 15.74 48.71 15.74C48.61 15.74 48.50 15.72 48.37 15.72L48.37 12.88C48.62 13.22 48.92 13.48 49.27 13.65C49.62 13.82 50.02 13.90 50.50 13.90C50.99 13.90 51.41 13.80 51.79 13.62C52.16 13.44 52.49 13.19 52.74 12.87C52.99 12.54 53.20 12.15 53.33 11.72C53.47 11.28 53.52 10.79 53.52 10.29C53.52 9.10 53.28 8.22 52.81 7.63ZM52.68 11.55C52.58 11.93 52.42 12.25 52.21 12.53C52.00 12.81 51.74 13.01 51.44 13.16C51.13 13.31 50.76 13.38 50.36 13.38C49.94 13.38 49.57 13.30 49.25 13.13C48.93 12.96 48.64 12.70 48.37 12.29L48.37 8.64C48.66 8.20 48.99 7.87 49.36 7.63C49.74 7.39 50.16 7.28 50.62 7.28C51.34 7.28 51.88 7.52 52.26 8.01C52.64 8.50 52.84 9.25 52.84 10.29C52.84 10.75 52.79 11.17 52.68 11.55ZM56.98 13.93C57.27 13.93 57.55 13.86 57.83 13.75C58.10 13.64 58.32 13.48 58.51 13.29L58.32 12.98C58.28 12.94 58.25 12.92 58.21 12.92C58.18 12.92 58.13 12.94 58.07 12.99C58.02 13.05 57.95 13.09 57.86 13.15C57.78 13.20 57.67 13.26 57.54 13.31C57.41 13.37 57.29 13.38 57.12 13.38C56.98 13.38 56.84 13.36 56.73 13.31C56.62 13.27 56.52 13.20 56.43 13.12C56.35 13.03 56.28 12.92 56.22 12.78C56.17 12.64 56.15 12.49 56.15 12.29L56.15 7.57L58.35 7.57L58.35 7.07L56.15 7.07L56.15 4.41L55.83 4.41C55.78 4.41 55.75 4.44 55.72 4.47C55.69 4.49 55.66 4.54 55.66 4.58L55.50 7.07L54.31 7.15L54.31 7.41C54.31 7.46 54.32 7.49 54.35 7.52C54.38 7.55 54.43 7.57 54.49 7.57L55.48 7.57L55.48 12.33C55.48 12.88 55.61 13.27 55.87 13.54C56.14 13.80 56.50 13.93 56.98 13.93ZM62.76 6.73C62.26 6.73 61.81 6.83 61.42 7.00C61.03 7.17 60.69 7.41 60.41 7.71C60.13 8.02 59.93 8.40 59.79 8.85C59.65 9.30 59.57 9.79 59.57 10.33C59.57 10.88 59.65 11.37 59.79 11.80C59.93 12.24 60.13 12.63 60.41 12.94C60.69 13.24 61.03 13.48 61.42 13.65C61.81 13.82 62.26 13.90 62.76 13.90C63.27 13.90 63.70 13.82 64.09 13.65C64.48 13.48 64.82 13.24 65.09 12.94C65.35 12.63 65.58 12.24 65.72 11.80C65.86 11.37 65.93 10.88 65.93 10.33C65.93 9.79 65.86 9.30 65.72 8.85C65.58 8.40 65.35 8.02 65.09 7.71C64.82 7.41 64.48 7.17 64.09 7.00C63.70 6.83 63.27 6.73 62.76 6.73ZM62.76 13.38C62.34 13.38 61.98 13.31 61.67 13.17C61.36 13.03 61.10 12.82 60.89 12.56C60.68 12.29 60.54 11.97 60.42 11.59C60.31 11.21 60.27 10.79 60.27 10.33C60.27 9.87 60.31 9.45 60.42 9.07C60.54 8.69 60.68 8.37 60.89 8.11C61.10 7.84 61.36 7.62 61.67 7.48C61.98 7.34 62.34 7.27 62.76 7.27C63.18 7.27 63.53 7.34 63.84 7.48C64.15 7.62 64.41 7.84 64.62 8.11C64.83 8.37 64.99 8.69 65.09 9.07C65.18 9.45 65.24 9.87 65.24 10.33C65.24 10.79 65.18 11.21 65.09 11.59C64.99 11.97 64.83 12.29 64.62 12.56C64.41 12.82 64.15 13.03 63.84 13.17C63.53 13.31 63.18 13.38 62.76 13.38ZM74.68 3.92L74.48 3.92L67.19 3.92L66.98 3.92L66.88 3.92L66.88 5.96L67.23 5.96C67.42 5.96 67.51 5.85 67.52 5.63C67.52 5.53 67.55 5.17 67.58 4.52L70.48 4.52L70.48 13.26C70.31 13.26 70.17 13.27 70.03 13.27C69.89 13.27 69.78 13.29 69.71 13.29L69.58 13.29C69.40 13.30 69.30 13.38 69.30 13.54L69.30 13.82L70.48 13.82L71.19 13.82L72.38 13.82L72.38 13.54C72.38 13.38 72.28 13.30 72.10 13.29L71.96 13.29C71.89 13.29 71.79 13.27 71.65 13.27C71.51 13.27 71.36 13.26 71.19 13.26L71.19 4.52L74.07 4.52C74.12 5.24 74.13 5.60 74.13 5.63C74.14 5.85 74.24 5.96 74.44 5.96L74.77 5.96L74.77 3.92ZM80.40 6.80C80.22 6.76 80.04 6.73 79.83 6.73C79.28 6.73 78.82 6.89 78.44 7.21C78.06 7.53 77.77 7.98 77.55 8.54L77.49 7.07C77.49 6.99 77.46 6.93 77.43 6.90C77.41 6.87 77.35 6.86 77.27 6.86L76.92 6.86L76.92 6.86L75.91 6.86L75.91 7.13C75.91 7.31 76.01 7.36 76.17 7.38C76.26 7.38 76.34 7.38 76.92 7.41L76.92 13.26C76.34 13.29 76.26 13.29 76.17 13.29C76.01 13.30 75.91 13.36 75.91 13.54L75.91 13.82L76.92 13.82L77.57 13.82L77.57 13.82L78.58 13.82L78.58 13.54C78.58 13.36 78.48 13.30 78.32 13.29C78.23 13.29 78.15 13.29 77.57 13.26L77.57 9.30C77.78 8.68 78.06 8.20 78.40 7.88C78.74 7.56 79.17 7.39 79.70 7.39C79.84 7.39 79.97 7.41 80.08 7.42C80.19 7.43 80.30 7.45 80.37 7.48C80.46 7.50 80.50 7.53 80.56 7.55C80.61 7.56 80.65 7.57 80.68 7.57C80.77 7.57 80.81 7.53 80.82 7.46L80.91 7.00C80.75 6.92 80.58 6.85 80.40 6.80ZM87.37 13.29L87.28 13.29L87.05 13.29C86.95 13.29 86.84 13.27 86.73 13.27L86.73 9.28C86.73 8.89 86.69 8.55 86.59 8.23C86.49 7.91 86.35 7.64 86.17 7.42C85.99 7.20 85.75 7.03 85.47 6.92C85.19 6.79 84.87 6.73 84.49 6.73C83.99 6.73 83.54 6.83 83.13 7.01C82.73 7.20 82.35 7.48 81.98 7.84L82.10 8.05C82.14 8.13 82.21 8.18 82.31 8.18C82.38 8.18 82.47 8.12 82.57 8.02C82.67 7.92 82.81 7.84 82.98 7.73C83.15 7.62 83.33 7.52 83.57 7.42C83.80 7.32 84.08 7.28 84.42 7.28C84.97 7.28 85.39 7.45 85.67 7.80C85.95 8.15 86.07 8.64 86.07 9.28L86.07 10.01C85.29 10.02 84.62 10.09 84.06 10.21C83.50 10.32 83.03 10.47 82.67 10.65C82.31 10.84 82.05 11.06 81.89 11.31C81.72 11.56 81.63 11.83 81.63 12.12C81.63 12.45 81.69 12.73 81.79 12.95C81.90 13.17 82.04 13.36 82.21 13.50C82.38 13.64 82.59 13.75 82.81 13.82C83.03 13.89 83.26 13.93 83.50 13.93C83.78 13.93 84.04 13.90 84.28 13.85C84.52 13.79 84.73 13.71 84.94 13.61C85.15 13.51 85.34 13.38 85.54 13.23C85.72 13.08 85.90 12.91 86.10 12.73L86.20 13.62C86.23 13.75 86.32 13.82 86.46 13.82L86.48 13.82L86.73 13.82L87.65 13.82L87.65 13.54C87.65 13.38 87.56 13.30 87.37 13.29ZM86.07 12.26C85.90 12.43 85.75 12.60 85.58 12.74C85.41 12.88 85.23 13.01 85.04 13.12C84.84 13.23 84.63 13.30 84.41 13.36C84.18 13.41 83.93 13.44 83.66 13.44C83.48 13.44 83.30 13.43 83.13 13.37C82.96 13.31 82.82 13.24 82.70 13.13C82.57 13.02 82.46 12.88 82.39 12.71C82.31 12.54 82.28 12.35 82.28 12.11C82.28 11.86 82.35 11.63 82.50 11.44C82.66 11.24 82.88 11.09 83.19 10.95C83.50 10.81 83.89 10.70 84.36 10.61C84.84 10.53 85.41 10.47 86.07 10.46ZM95.55 13.54C95.55 13.38 95.47 13.30 95.28 13.29L95.21 13.29L95.12 13.29C95.07 13.29 95.00 13.27 94.92 13.27L94.61 13.27L94.61 3.63L93.95 3.63L92.95 3.63L92.95 3.91C92.95 4.06 93.04 4.14 93.23 4.16L93.30 4.16C93.32 4.16 93.35 4.17 93.39 4.17L93.62 4.17C93.72 4.17 93.83 4.19 93.95 4.19L93.95 7.76C93.70 7.42 93.41 7.17 93.06 7.00C92.71 6.82 92.30 6.73 91.83 6.73C91.34 6.73 90.90 6.83 90.52 7.01C90.15 7.20 89.84 7.46 89.57 7.78C89.31 8.11 89.12 8.50 88.98 8.93C88.84 9.37 88.79 9.84 88.79 10.35C88.79 11.54 89.03 12.43 89.50 13.02C89.98 13.61 90.65 13.90 91.50 13.90C92.02 13.90 92.48 13.79 92.90 13.54C93.32 13.29 93.67 12.95 93.98 12.53L94.05 13.64C94.07 13.76 94.14 13.82 94.25 13.82L94.61 13.82L95.55 13.82L95.55 13.61ZM93.95 12.01C93.66 12.43 93.32 12.77 92.95 13.01C92.57 13.24 92.16 13.37 91.70 13.37C90.99 13.37 90.43 13.13 90.05 12.64C89.67 12.15 89.47 11.38 89.47 10.35C89.47 9.88 89.52 9.48 89.63 9.10C89.74 8.72 89.89 8.39 90.10 8.12C90.31 7.85 90.57 7.63 90.87 7.48C91.18 7.32 91.55 7.25 91.95 7.25C92.36 7.25 92.74 7.34 93.06 7.50C93.38 7.67 93.69 7.95 93.95 8.34ZM99.78 6.73C99.29 6.73 98.84 6.83 98.45 7.00C98.06 7.17 97.73 7.41 97.47 7.71C97.20 8.02 96.99 8.39 96.85 8.81C96.71 9.23 96.63 9.69 96.63 10.19C96.63 10.78 96.71 11.31 96.87 11.77C97.02 12.24 97.23 12.61 97.51 12.94C97.79 13.26 98.13 13.50 98.52 13.66C98.91 13.83 99.34 13.90 99.82 13.90C100.09 13.90 100.35 13.89 100.60 13.83C100.86 13.78 101.11 13.71 101.33 13.62C101.56 13.54 101.77 13.44 101.95 13.31C102.13 13.19 102.28 13.06 102.40 12.92L102.21 12.70C102.19 12.66 102.13 12.63 102.07 12.63C102.03 12.63 101.95 12.66 101.85 12.74C101.75 12.82 101.61 12.91 101.43 13.01C101.26 13.10 101.04 13.17 100.79 13.26C100.53 13.34 100.23 13.38 99.88 13.38C99.48 13.38 99.13 13.31 98.81 13.17C98.49 13.03 98.22 12.84 98 12.57C97.78 12.31 97.61 11.97 97.48 11.58C97.36 11.19 97.30 10.71 97.30 10.19L97.30 10.07L102.33 10.07C102.40 10.07 102.44 10.05 102.47 10.01C102.49 9.97 102.52 9.90 102.52 9.80C102.52 9.31 102.45 8.88 102.31 8.50C102.17 8.12 101.99 7.78 101.74 7.53C101.50 7.28 101.21 7.08 100.87 6.94C100.53 6.80 100.17 6.73 99.78 6.73ZM99.79 7.24C100.11 7.24 100.39 7.29 100.66 7.41C100.93 7.52 101.15 7.67 101.33 7.88C101.51 8.09 101.67 8.33 101.77 8.62C101.86 8.92 101.92 9.25 101.92 9.63L97.33 9.63C97.37 9.27 97.45 8.93 97.58 8.64C97.71 8.34 97.87 8.09 98.08 7.88C98.29 7.67 98.55 7.52 98.83 7.41C99.11 7.29 99.43 7.24 99.79 7.24ZM108.30 11.06C108.19 10.86 108.05 10.71 107.87 10.57C107.69 10.43 107.48 10.32 107.25 10.23C107.03 10.15 106.78 10.05 106.54 9.98C106.30 9.91 106.06 9.83 105.83 9.76C105.60 9.69 105.39 9.59 105.21 9.49C105.03 9.39 104.89 9.27 104.78 9.13C104.66 8.99 104.61 8.81 104.61 8.58C104.61 8.40 104.64 8.23 104.72 8.08C104.80 7.92 104.92 7.77 105.07 7.64C105.21 7.52 105.39 7.43 105.60 7.36C105.81 7.29 106.04 7.25 106.29 7.25C106.65 7.25 107.02 7.31 107.39 7.43C107.41 7.60 107.42 7.77 107.44 7.92C107.45 8.08 107.45 8.19 107.46 8.27C107.48 8.36 107.48 8.43 107.48 8.44C107.49 8.67 107.59 8.78 107.79 8.78L108.12 8.78L108.12 7.11C107.39 6.86 106.78 6.75 106.27 6.75C105.92 6.75 105.60 6.80 105.32 6.90C105.04 7.00 104.79 7.14 104.59 7.31C104.40 7.48 104.24 7.69 104.13 7.91C104.02 8.13 103.98 8.37 103.98 8.62C103.98 8.92 104.03 9.16 104.15 9.35C104.26 9.55 104.40 9.70 104.58 9.84C104.76 9.98 104.96 10.09 105.20 10.18C105.42 10.26 105.66 10.35 105.91 10.42C106.15 10.49 106.39 10.57 106.62 10.64C106.85 10.71 107.06 10.81 107.24 10.92C107.42 11.03 107.58 11.16 107.69 11.31C107.80 11.47 107.86 11.65 107.86 11.89C107.86 12.10 107.81 12.29 107.74 12.49C107.66 12.68 107.55 12.84 107.39 12.98C107.24 13.12 107.06 13.23 106.83 13.31C106.61 13.40 106.36 13.44 106.06 13.44C105.53 13.44 105.08 13.37 104.71 13.22C104.69 13.03 104.68 12.87 104.66 12.71C104.65 12.56 104.65 12.43 104.64 12.35C104.62 12.26 104.62 12.19 104.62 12.18C104.61 11.96 104.51 11.84 104.31 11.84L103.98 11.84L103.98 13.54C104.65 13.79 105.34 13.93 106.04 13.93C106.43 13.93 106.76 13.87 107.07 13.76C107.38 13.65 107.63 13.50 107.84 13.30C108.05 13.10 108.21 12.89 108.32 12.63C108.43 12.36 108.49 12.08 108.49 11.77C108.49 11.49 108.42 11.26 108.30 11.06Z"></path></g><!----><!----></svg>